<svg width="25" height="25" viewBox="0 0 25 25" fill="none" xmlns="http://www.w3.org/2000/svg">
<g clip-path="url(#clip0_2507_1648)">
<path d="M14.8438 21.0938H21.0938C21.8661 21.0938 22.5223 20.9195 23.0672 20.616L14.8438 15.7105V21.0938ZM24.8672 18.0508C24.9563 17.6535 25.0016 17.2328 25.0016 16.7965V14.8434H19.4899L24.8657 18.0508M0.136771 6.93711C0.0440816 7.35269 -0.00177705 7.77734 5.26576e-05 8.20312V10.1562H5.53286L0.136771 6.93711ZM10.1563 3.90625H3.9063C3.13951 3.90625 2.48755 4.07813 1.94497 4.37734L10.1563 9.27578V3.90625ZM1.96997 20.6352C2.50747 20.9258 3.15083 21.0938 3.9063 21.0938H10.1563V15.7516L1.96997 20.6352ZM5.26576e-05 14.8438V16.7969C5.26576e-05 17.2465 0.0477089 17.6797 0.14185 18.0871L5.57896 14.8438H5.26576e-05ZM23.0918 4.39648C22.5426 4.08477 21.8774 3.90625 21.0938 3.90625H14.8438V9.3168L23.0918 4.39648ZM25.0001 10.1562V8.20312C25.0001 7.77578 24.9559 7.36367 24.8704 6.97383L19.536 10.1562H25.0001Z" fill="#2E3192"/>
<path d="M19.5359 10.1562L24.8703 6.97383C24.6258 5.85508 24.0305 4.92891 23.0918 4.39648L14.8438 9.3168V3.90625H14.0625V10.9375H25V10.1562H19.5359ZM0 14.0625V14.8438H5.57891L0.141797 18.0871C0.4 19.2023 1.01328 20.118 1.96992 20.6352L10.1562 15.7516V21.0938H10.9375V14.0625H0ZM25 14.0625H14.0625V21.0938H14.8438V15.7105L23.0672 20.6164C24.0129 20.0898 24.6156 19.1688 24.8656 18.0516L19.4898 14.8438H25V14.0625ZM10.1562 3.90625V9.27578L1.94492 4.37734C0.995703 4.90078 0.389063 5.82031 0.136328 6.93711L5.53281 10.1562H0V10.9375H10.9375V3.90625H10.1562Z" fill="#E6E7E8"/>
<path d="M14.0625 10.9375V3.90625H10.9375V10.9375H0V14.0625H10.9375V21.0938H14.0625V14.0625H25V10.9375H14.0625Z" fill="#BE1E2D"/>
<path d="M8.56953 10.1563L0.7375 5.48096C0.569141 5.73096 0.433984 6.00596 0.322266 6.29893L6.78594 10.1563H8.56836M24.6445 18.7853L18.077 14.8438H16.2582L24.193 19.6169C24.3765 19.3595 24.5282 19.0808 24.6445 18.7868M23.7184 4.84033L14.8316 10.1563L16.6359 10.1575L24.3043 5.5665C24.1332 5.25518 23.9527 5.05439 23.7184 4.84033ZM0.708203 19.4825C0.883934 19.7501 1.09539 19.9925 1.33672 20.2028L10.1809 14.8438H8.39844L0.708203 19.4825Z" fill="#BE1E2D"/>
</g>
<defs>
<clipPath id="clip0_2507_1648">
<rect width="25" height="25" fill="white"/>
</clipPath>
</defs>
</svg>
